<?xml version="1.0" encoding="UTF-8"?>
<svg id="Camada_1" data-name="Camada 1" xmlns="http://www.w3.org/2000/svg" viewBox="0 0 788.43 786.86">
  <defs>
    <style>
      .cls-1 {
        fill: #7a19ba;
        stroke-width: 0px;
      }
    </style>
  </defs>
  <path class="cls-1" d="m542.26,0H246.21C110.23,0,0,110.23,0,246.21v294.45c0,135.98,110.23,246.21,246.21,246.21h296.06c135.98,0,246.17-110.23,246.17-246.21V246.21C788.43,110.23,678.24,0,542.26,0Zm-195.66,186.63c.04-.19.08-.38.15-.61,4.59-21.58,23.76-37.72,46.68-37.72,5.13,0,10.1.8,14.73,2.33,22.23,5.24,38.72,24.6,38.72,47.67,0,27.09-22.76,49.09-50.89,49.09s-50.85-22-50.85-49.09c0-4.02.5-7.92,1.45-11.67Zm-136.59,46.75c.27-.57.54-1.07.84-1.61,7.81-14.81,23.22-24.98,41.01-25.4,1.19-.11,2.41-.15,3.63-.15,28.08,0,50.85,21.96,50.85,49.05s-22.76,49.09-50.85,49.09-50.85-21.96-50.85-49.09c0-7.88,1.91-15.3,5.36-21.89Zm45.11,351.19c-28.08,0-50.89-21.96-50.89-49.05,0-24.87,19.17-45.38,44-48.63,2.95-.54,5.97-.84,9.07-.84,18.48,0,34.51,10.48,42.43,25.83.19.42.42.8.61,1.22,3.6,6.7,5.62,14.31,5.62,22.42,0,27.09-22.76,49.05-50.85,49.05Zm140.11,56.2c-28.08,0-50.89-21.96-50.89-49.05s22.8-49.09,50.89-49.09,50.85,21.96,50.85,49.09-22.76,49.05-50.85,49.05Zm83.52-228.72s-.04.08-.04.11c-6.05,38.83-39.79,68.87-79.73,69.63-27.51.5-52.03-12.47-67.38-32.79-3.1-4.13-5.82-8.57-8.11-13.24-.19-.38-.38-.8-.57-1.19h-.42c-11.48-13.74-28.73-22.46-48.05-22.46-13.85,0-26.71,4.51-37.07,12.13-3.71,2.72-7.08,5.82-10.06,9.22-1.11.96-2.14,1.87-3.25,2.83-8.72,5.32-19.36,7.96-30.57,6.62-14.58-1.68-27.24-10.22-34.74-22.15-6.54-8.26-10.41-18.52-10.41-29.73,0-27.09,22.76-49.09,50.85-49.09,13.89,0,26.44,5.36,35.62,14.08,4.13,4.94,8.95,9.22,14.62,12.28,7.61,4.09,19.09,9.41,27.62,9.41,18.86,0,35.31-9.91,44.08-24.64.31-.5.61-1.03.92-1.57,14.54-25.06,42.35-42.01,74.26-42.01,46.98,0,85.09,36.77,85.09,82.14,0,7.04-.92,13.89-2.64,20.39Zm55.78-206.26c28.08,0,50.85,22,50.85,49.09s-22.76,49.09-50.85,49.09-50.85-21.96-50.85-49.09,22.76-49.09,50.85-49.09Zm.42,377.21c-28.12,0-50.89-21.96-50.89-49.09s22.76-49.09,50.89-49.09,50.85,22,50.85,49.09-22.76,49.09-50.85,49.09Zm91.75-152.7l-.04.04c-8.61,8.65-20.55,14-33.75,14-12.05,0-23.03-4.48-31.41-11.82-11.94-8.95-19.63-22.96-19.63-38.72,0-27.09,22.76-49.09,50.85-49.09s50.85,22,50.85,49.09c0,14.5-6.5,27.55-16.87,36.5Z"/>
</svg>