<?xml version="1.0" encoding="UTF-8"?>
<svg id="Camada_1" data-name="Camada 1" xmlns="http://www.w3.org/2000/svg" viewBox="0 0 1637.14 555.71">
  <defs>
    <style>
      .cls-1 {
        letter-spacing: -.03em;
      }

      .cls-1, .cls-2, .cls-3 {
        fill: #1d1d1b;
      }

      .cls-2 {
        letter-spacing: .02em;
      }

      .cls-4, .cls-5, .cls-6 {
        fill: #7a19ba;
      }

      .cls-7 {
        font-family: LegianTypeface-Regular, 'Legian Typeface';
        font-size: 376.53px;
      }

      .cls-5 {
        stroke-width: 0px;
      }

      .cls-6 {
        letter-spacing: -.03em;
      }
    </style>
  </defs>
  <path class="cls-5" d="m313.79,0h-171.32C63.78,0,0,63.78,0,142.47v170.39c0,78.68,63.78,142.47,142.47,142.47h171.32c78.68,0,142.45-63.78,142.45-142.47v-170.39C456.24,63.78,392.47,0,313.79,0Zm-113.22,108c.02-.11.04-.22.09-.35,2.66-12.49,13.75-21.83,27.01-21.83,2.97,0,5.84.46,8.52,1.35,12.86,3.03,22.41,14.24,22.41,27.59,0,15.68-13.17,28.41-29.45,28.41s-29.42-12.73-29.42-28.41c0-2.32.29-4.58.84-6.75Zm-79.04,27.05c.15-.33.31-.62.49-.93,4.52-8.57,13.44-14.46,23.73-14.7.69-.07,1.39-.09,2.1-.09,16.25,0,29.42,12.71,29.42,28.38s-13.17,28.41-29.42,28.41-29.42-12.71-29.42-28.41c0-4.56,1.11-8.86,3.1-12.66Zm26.1,203.22c-16.25,0-29.45-12.71-29.45-28.38,0-14.39,11.09-26.26,25.46-28.14,1.7-.31,3.45-.49,5.25-.49,10.69,0,19.97,6.07,24.55,14.94.11.24.24.46.35.71,2.08,3.87,3.25,8.28,3.25,12.97,0,15.67-13.17,28.38-29.42,28.38Zm81.08,32.52c-16.25,0-29.45-12.71-29.45-28.38s13.2-28.41,29.45-28.41,29.42,12.71,29.42,28.41-13.17,28.38-29.42,28.38Zm48.33-132.35s-.02.04-.02.07c-3.5,22.47-23.03,39.85-46.14,40.29-15.92.29-30.11-7.22-38.99-18.97-1.79-2.39-3.37-4.96-4.69-7.66-.11-.22-.22-.46-.33-.69h-.24c-6.64-7.95-16.63-13-27.81-13-8.01,0-15.45,2.61-21.45,7.02-2.15,1.57-4.1,3.37-5.82,5.34-.64.55-1.24,1.08-1.88,1.64-5.05,3.08-11.2,4.61-17.69,3.83-8.44-.97-15.76-5.91-20.1-12.82-3.79-4.78-6.02-10.72-6.02-17.2,0-15.68,13.17-28.41,29.42-28.41,8.04,0,15.3,3.1,20.61,8.15,2.39,2.86,5.18,5.34,8.46,7.11,4.41,2.37,11.05,5.45,15.98,5.45,10.91,0,20.44-5.73,25.51-14.26.18-.29.35-.6.53-.91,8.41-14.5,24.51-24.31,42.97-24.31,27.19,0,49.24,21.28,49.24,47.53,0,4.07-.53,8.04-1.53,11.8Zm32.28-119.36c16.25,0,29.42,12.73,29.42,28.41s-13.17,28.41-29.42,28.41-29.42-12.71-29.42-28.41,13.17-28.41,29.42-28.41Zm.24,218.28c-16.27,0-29.45-12.71-29.45-28.41s13.17-28.41,29.45-28.41,29.42,12.73,29.42,28.41-13.17,28.41-29.42,28.41Zm53.09-88.36l-.02.02c-4.98,5-11.89,8.1-19.53,8.1-6.97,0-13.33-2.59-18.18-6.84-6.91-5.18-11.36-13.28-11.36-22.41,0-15.68,13.17-28.41,29.42-28.41s29.42,12.73,29.42,28.41c0,8.39-3.76,15.94-9.76,21.12Z"/>
  <text class="cls-7" transform="translate(563.68 367.45)"><tspan class="cls-4" x="0" y="0">N</tspan><tspan class="cls-6" x="244.74" y="0">e</tspan><tspan class="cls-4" x="452.96" y="0">x</tspan><tspan class="cls-2" x="646.49" y="0">i</tspan><tspan class="cls-1" x="746.64" y="0">f</tspan><tspan class="cls-3" x="888.96" y="0">y</tspan></text>
</svg>